<svg viewBox="0 0 28.4 28.4" xmlns="http://www.w3.org/2000/svg"><path d="m27.1 5.3v18.1c0 .9-.3 1.6-.9 2.2s-1.3.9-2.2.9h-18.1c-.9 0-1.6-.3-2.2-.9s-.9-1.3-.9-2.2v-18.1c0-.9.3-1.6.9-2.2s1.3-.9 2.2-.9h18.1c.9 0 1.6.3 2.2.9.6.7.9 1.4.9 2.2zm-2.7 17.5v-10.3h-2.1c.2.7.3 1.4.3 2.1 0 1.3-.3 2.6-1 3.7s-1.6 2-2.8 2.7-2.4 1-3.8 1c-2.1 0-3.9-.7-5.3-2.1-1.5-1.4-2.2-3.2-2.2-5.2 0-.7.1-1.4.3-2.1h-2.3v10.2c0 .3.1.5.3.7s.4.3.7.3h16.9c.3 0 .5-.1.7-.3s.3-.5.3-.7zm-6-5.1c1-.9 1.4-2 1.4-3.3s-.5-2.4-1.4-3.3c-1-.9-2.1-1.4-3.5-1.4-1.3 0-2.5.5-3.4 1.4-1 .9-1.4 2-1.4 3.3s.5 2.4 1.4 3.3c1 .9 2.1 1.4 3.4 1.4 1.4 0 2.6-.5 3.5-1.4zm6-9.1v-2.6c0-.3-.1-.6-.3-.8s-.5-.3-.8-.3h-2.8c-.3 0-.6.1-.8.3s-.3.5-.3.8v2.6c0 .3.1.6.3.8s.5.3.8.3h2.8c.3 0 .6-.1.8-.3.1-.2.3-.5.3-.8z" fill="#010202"/></svg>