<svg viewBox="0 0 28.4 28.4" xmlns="http://www.w3.org/2000/svg"><path d="m27.4 6.3c-.7 1.1-1.6 2-2.7 2.8v.7c0 1.4-.2 2.9-.6 4.3s-1.1 2.8-1.9 4.1c-.9 1.3-1.9 2.5-3.1 3.5s-2.6 1.8-4.3 2.4-3.5.9-5.4.9c-3 0-5.7-.8-8.2-2.4.4 0 .8.1 1.3.1 2.5 0 4.7-.8 6.6-2.3-1.2 0-2.2-.4-3.1-1.1s-1.5-1.6-1.9-2.6c.4.1.7.1 1 .1.5 0 .9-.1 1.4-.2-1.2-.3-2.3-.9-3.1-1.8s-1.2-2.1-1.2-3.4v-.1c.8.4 1.6.6 2.4.7-.7-.5-1.3-1.1-1.7-1.9-.3-.9-.5-1.7-.5-2.7s.2-1.9.7-2.7c1.3 1.6 3 3 4.9 4s4 1.5 6.2 1.6c-.1-.4-.1-.8-.1-1.2 0-1.5.5-2.7 1.6-3.8s2.3-1.6 3.8-1.6 2.8.6 3.9 1.7c1.2-.2 2.3-.7 3.4-1.3-.4 1.3-1.2 2.3-2.4 2.9 1 0 2-.3 3-.7z" fill="#010202"/></svg>