<svg viewBox="0 0 28.4 28.4" xmlns="http://www.w3.org/2000/svg"><path d="m27.1 12.2v4.4c0 .5-.1 1.2-.1 2-.1.8-.2 1.5-.3 2.1-.2.7-.5 1.3-1 1.8s-1.1.8-1.8.8c-2.1.2-5.3.4-9.6.4s-7.5-.1-9.6-.4c-.7-.1-1.3-.4-1.8-.8-.5-.5-.8-1.1-1-1.8-.1-.6-.2-1.3-.3-2.1s-.1-1.4-.1-2v-4.4c0-.5.1-1.2.1-2 .1-.8.2-1.5.3-2.1.2-.7.5-1.3 1-1.8s1.1-.8 1.8-.8c2.1-.2 5.3-.4 9.6-.4s7.5.1 9.6.4c.7.1 1.3.4 1.8.8.5.5.8 1.1 1 1.8.1.6.2 1.3.3 2.1s.1 1.5.1 2zm-7.3 2.2c0-.4-.1-.6-.4-.8l-7.4-4.6c-.3-.2-.6-.2-.9 0s-.5.4-.5.8v9.2c0 .4.2.6.5.8.2.1.3.1.4.1.2 0 .4 0 .5-.1l7.4-4.6c.2-.2.4-.5.4-.8z" fill="#010202"/></svg>